<?xml version="1.0" encoding="utf-8"?>
<!-- Generator: Adobe Illustrator 25.4.1, SVG Export Plug-In . SVG Version: 6.00 Build 0)  -->
<svg version="1.1" id="Capa_1" xmlns="http://www.w3.org/2000/svg" xmlns:xlink="http://www.w3.org/1999/xlink" x="0px" y="0px"
	 viewBox="0 0 533.5 669.3" style="enable-background:new 0 0 533.5 669.3;" xml:space="preserve">
<style type="text/css">
	.st0{fill-rule:evenodd;clip-rule:evenodd;fill:#FFFFFF;}
</style>
<path class="st0" d="M14.3,406.1C5.6,426.9,0.8,449.2,0,471.7c1.2,13.9,5.9,27.3,13.8,38.8c14.7,17.1,32.5,31.3,52.3,42l128.2,85.4
	c15.8,12.6,33.5,22.4,52.5,29.2c12.3,2.9,25.2,2.9,37.5,0c19.1-6.7,37-16.5,52.9-29l129.6-85.4c20.1-10.7,38-25,52.9-42.2
	c7.9-11.6,12.6-25.1,13.7-39.1c-0.9-22.7-5.8-45.1-14.7-66.1L405.5,48.7c-2.5-11.6-7.1-22.6-13.5-32.5c-4.7-5.7-10.7-10-17.5-12.7
	c-11.4-3.1-23.2-4.1-35-3H191.9c-11.8-1.1-23.6,0-35,3.1c-6.8,2.7-12.9,7.1-17.5,12.8c-6.4,9.9-10.9,21-13.4,32.5L14.3,406.1
	L14.3,406.1z M345.3,76.1c5.3,8.4,9,17.6,11,27.3L453.6,423c-36.5-19-75.8-32.2-116.3-39.3l-63.2-214c-1.3-4.4-6-6.8-10.3-5.5
	c-0.9,0.3-1.7,0.7-2.5,1.3c-1.4,1-2.5,2.5-3,4.2l-62.5,213.9c-40.7,7.1-80.2,20.4-116.8,39.5l97.7-319.6c2-9.7,5.7-19,11.1-27.3
	c3.9-4.7,8.9-8.4,14.5-10.7c9.6-2.6,19.5-3.4,29.4-2.5h69.8c9.9-0.9,19.8-0.1,29.4,2.5c5.7,2.3,10.7,6,14.6,10.8L345.3,76.1z
	 M270,461.4c30.1,1.7,59.9-6.4,85-23.1c5.8,18.1,3.9,37.8-5.2,54.5c-9.2,15.7-22.6,28.5-38.7,37c-16.9,10.7-31.4,20-31.4,44.7
	c0,7.9,1.8,15.7,5.2,22.8c-23.2-9.7-38.4-32.3-38.4-57.5v-1.5c0-17.1,0-38.1-24-38.1c-3.4,0-6.7,0.7-9.8,1.9
	c-6.2,2.6-11.2,7.5-13.8,13.8c-1.3,3.1-2,6.4-2,9.8c-16.5-18-25.3-41.7-24.7-66.1c-0.1-10.6,1.4-21.1,4.4-31.2
	C186.7,447.4,224.7,461.5,270,461.4L270,461.4z"/>
</svg>
