<?xml version="1.0" encoding="utf-8"?>
<!-- Generator: Adobe Illustrator 25.4.1, SVG Export Plug-In . SVG Version: 6.00 Build 0)  -->
<svg version="1.1" id="icons" xmlns="http://www.w3.org/2000/svg" xmlns:xlink="http://www.w3.org/1999/xlink" x="0px" y="0px"
	 viewBox="0 0 550 750" style="enable-background:new 0 0 550 750;" xml:space="preserve">
<style type="text/css">
	.st0{fill:#FFFFFF;}
</style>
<path id="icon" class="st0" d="M20.6,489.7L94.8,14.5c2.6-16.2,24.3-20,32-5.5l79.7,149.1L20.6,489.7z M550,600l-73-432.5
	c-1.6-9.4-10.5-15.6-19.8-14c-3.4,0.6-6.6,2.2-9.1,4.7L0,600l249,143.6c15.5,8.5,34.3,8.5,49.9,0L550,600z M347.4,223.3l-57.1-108.7
	c-4.2-8.4-14.5-11.7-22.8-7.4c-3.2,1.6-5.8,4.2-7.4,7.4L9.1,562.1L347.4,223.3z"/>
</svg>
