<?xml version="1.0" encoding="utf-8"?>
<!-- Generator: Adobe Illustrator 25.4.1, SVG Export Plug-In . SVG Version: 6.00 Build 0)  -->
<svg version="1.1" id="Capa_1" xmlns="http://www.w3.org/2000/svg" xmlns:xlink="http://www.w3.org/1999/xlink" x="0px" y="0px"
	 viewBox="0 0 600 650" style="enable-background:new 0 0 600 650;" xml:space="preserve">
<style type="text/css">
	.st0{fill:#FFFFFF;}
</style>
<path class="st0" d="M299.9,0c-9.1,0-18.2,2.2-26.1,6.7L26,149.8C10,159,0,176.5,0,195v259.5c0,18.8,10,36,26,45.3l65,37.5
	c31.5,15.5,42.7,15.5,57,15.5c46.8,0,73.5-28.2,73.5-77.2V207.8c0-4-3.2-7.3-7.2-7.3H183c-4.2,0-7.3,3.3-7.3,7.3v267.5
	c0,22-22.7,43.5-59.5,25.2l-68-39.3c-2.5-1.2-4-4-4-6.7V195.3c0-3,1.5-5.5,4-7L296,45.3c2.2-1.5,5.3-1.5,7.8,0l247.8,143
	c2.5,1.5,4,4,4,6.8v259.5c0,2.7-1.5,5.5-3.8,6.7l-248,143.3c-2.2,1.2-5.5,1.2-7.8,0l-63.8-37.7c-1.7-1.2-4.2-1.5-6-0.5
	c-17.8,10-21,11.2-37.5,17c-4,1.2-10.3,3.7,2.2,10.7l82.7,49c8,4.5,17,7,26,7c9.2,0,18.2-2.5,26.2-7l248-143.3
	c16-9.3,26-26.5,26-45.3V195.3c0-18.8-10-36-26-45.3L326,6.7C318.1,2.2,309,0,299.9,0z M366.5,200.1c-70.8,0-113,30-113,80
	c0,54.2,42,69.2,110,76c81.2,8,87.5,20,87.5,36c0,27.5-22.2,39.3-74.5,39.3c-65.7,0-80.3-16.5-85-49c-0.5-3.5-3.5-6-7-6h-32.3
	c-4,0-7,3.3-7,7c0,41.8,22.8,91.5,131.2,91.5c78.5,0,123.5-31,123.5-85c0-53.5-36.3-67.8-112.3-78c-77.2-10-85-15.3-85-33.3
	c0-15,6.8-34.7,63.8-34.7c50.8,0,69.7,11,77.5,45.2c0.8,3.2,3.5,5.8,7,5.8h32.3c2,0,3.7-1,5.2-2.5c1.2-1.2,2-3.3,1.8-5.5
	C485.2,227.9,446,200.1,366.5,200.1z"/>
</svg>
