<?xml version="1.0" encoding="utf-8"?>
<!-- Generator: Adobe Illustrator 25.4.1, SVG Export Plug-In . SVG Version: 6.00 Build 0)  -->
<svg version="1.1" id="Capa_1" xmlns="http://www.w3.org/2000/svg" xmlns:xlink="http://www.w3.org/1999/xlink" x="0px" y="0px"
	 viewBox="0 0 593.1 666.7" style="enable-background:new 0 0 593.1 666.7;" xml:space="preserve">
<style type="text/css">
	.st0{fill:#FFFFFF;}
</style>
<path class="st0" d="M266.6,281.3c-28.5,16.4-38.2,52.8-21.8,81.3c16.4,28.5,52.8,38.2,81.3,21.8c28.5-16.4,38.2-52.8,21.8-81.3
	c0,0,0,0,0,0C331.5,274.6,295.1,264.8,266.6,281.3z M533.5,345.9c-3.9-4.5-8-8.9-12.4-13.4c3-3.2,6-6.4,8.8-9.5
	c53.5-60.1,76.1-120.5,55.2-156.7c-20.1-34.8-79.8-45.1-154.5-30.6c-7.4,1.4-14.7,3.1-22,4.9c-1.4-4.8-2.9-9.6-4.4-14.3
	C378.8,49.7,337.8,0,295.9,0C255.8,0,217,46.6,192.2,118.6c-2.4,7.1-4.7,14.3-6.8,21.5c-4.9-1.2-9.8-2.3-14.7-3.3
	c-78.9-16.2-142.4-5.5-163.3,30.8c-20,34.8,0.9,91.7,51,149.1c5,5.7,10.1,11.2,15.3,16.7c-6.2,6.4-12,12.7-17.5,19.1
	C7.5,408.9-12.3,464.8,7.7,499.5C28.4,535.3,91,547,167.2,532c6.2-1.2,12.3-2.6,18.4-4.1c2.2,7.8,4.7,15.6,7.4,23.2
	c24.6,70.6,63.2,115.6,103.2,115.6c41.3,0,82.7-48.4,107.8-122c2-5.8,3.9-11.8,5.6-18.1c7.9,2,15.8,3.7,23.8,5.2
	c73.4,13.9,131.8,3,151.7-31.7C605.9,464.4,584.6,404.3,533.5,345.9L533.5,345.9z M32.2,181.7c12.9-22.3,64.8-31,132.9-17.1
	c4.4,0.9,8.8,1.9,13.3,3c-6.6,29.4-11.3,59.2-14,89.3c-24.6,17.3-48,36.1-70.1,56.5c-4.9-5-9.6-10.2-14.2-15.5l0,0
	C37.1,248.7,20.1,202.7,32.2,181.7z M161.8,372.7c-17-12.9-32.8-26.1-47.2-39.4c14.3-13.2,30.2-26.4,47.2-39.2
	c-0.6,13.1-0.9,26.2-0.9,39.3C160.8,346.5,161.1,359.6,161.8,372.7z M161.7,504c-28.9,6.4-58.7,7.5-88,3.1
	c-16.2-1.3-31.2-9.2-41.4-21.9c-12.1-21,3.7-65.9,45.5-114.3c5.2-6.1,10.7-12,16.3-17.7c22.1,20.4,45.6,39.3,70.2,56.7
	c2.7,30.4,7.5,60.6,14.2,90.4C173,501.6,167.4,502.9,161.7,504z M398.4,236c-11.2-7-22.5-13.9-34-20.5
	c-11.3-6.5-22.7-12.7-34.2-18.7c19.8-8.3,39.2-15.4,58-21.2C392.6,195.6,396.1,215.8,398.4,236L398.4,236z M219.2,127.8
	c21.2-61.7,52.6-99.4,76.8-99.4c25.8,0,59.3,40.6,81.1,106.6c1.4,4.3,2.8,8.6,4,13c-28.8,8.9-56.9,19.7-84.2,32.4
	c-27.2-12.8-55.3-23.7-84-32.7C214.8,141,216.9,134.4,219.2,127.8z M205.8,175.3c19.6,6.2,38.8,13.3,57.7,21.4
	c-23.4,12.1-46.1,25.2-68.2,39.4C197.9,214.8,201.5,194.4,205.8,175.3z M195.3,430.7c11,7.1,22.2,13.9,33.6,20.4
	c11.6,6.7,23.3,13.1,35.2,19.2c-19,8.4-38.4,15.8-58.1,22.2C201.6,473,198,452.3,195.3,430.7z M377.1,535.5
	c-8.9,28.2-22.9,54.6-41.3,77.8l0,0c-9.2,13.4-23.5,22.4-39.6,24.9c-24.3,0-55.3-36.2-76.3-96.5c-2.5-7.1-4.8-14.3-6.9-21.6
	c28.8-9.3,57-20.5,84.3-33.7c27.6,12.7,55.9,23.6,84.9,32.6C380.7,524.6,379,530.1,377.1,535.5L377.1,535.5z M389.2,491.4
	c-19-5.9-38.7-13.1-58.7-21.5c11.3-5.9,22.7-12.2,34.2-18.8c11.8-6.8,23.2-13.8,34.4-20.9C396.8,450.7,393.5,471.1,389.2,491.4
	L389.2,491.4z M404.1,333.3c0,20.2-0.6,40.5-1.9,60.7c-16.4,11.1-33.8,22-51.8,32.4c-18,10.4-35.8,19.9-53.2,28.5
	c-18.4-8.8-36.4-18.3-54.1-28.5c-17.6-10.1-34.7-20.9-51.5-32.3c-1.5-20.2-2.3-40.4-2.3-60.7l0,0c0-20.3,0.7-40.5,2.3-60.7
	c16.4-11.2,33.6-22.1,51.4-32.3c17.9-10.3,35.9-19.8,53.8-28.4c18.1,8.8,36,18.3,53.5,28.4c17.6,10.1,34.8,20.7,51.6,32
	C403.4,292.5,404.1,312.9,404.1,333.3L404.1,333.3z M436,163.5c64-12.5,112.3-4.1,124.4,16.9c12.9,22.3-5.6,71.6-51.8,123.5l0,0
	c-2.6,2.9-5.2,5.7-7.9,8.6c-22.5-20.4-46.4-39.2-71.5-56.3c-2.5-29.7-7-59.2-13.5-88.3C422.6,166.3,429.3,164.8,436,163.5L436,163.5
	z M431.7,293c16.9,12.3,33.2,25.6,48.7,39.6c-15.5,14.3-31.7,27.7-48.6,40.3c0.5-13.2,0.8-26.4,0.8-39.6
	C432.6,319.8,432.3,306.4,431.7,293L431.7,293z M560.6,486c-12.1,21-58.9,29.8-121.7,17.9c-7.2-1.4-14.6-3-22.2-4.9
	c6.3-29.5,10.6-59.3,12.9-89.4c25-17.4,48.8-36.5,71.2-57.2c3.9,4.1,7.6,8.1,11.2,12.2v0c20,21.8,35.9,47.1,46.8,74.6
	C565.8,453.9,566.5,470.8,560.6,486L560.6,486z"/>
</svg>
