<?xml version="1.0" encoding="utf-8"?>
<!-- Generator: Adobe Illustrator 25.4.1, SVG Export Plug-In . SVG Version: 6.00 Build 0)  -->
<svg version="1.1" id="Capa_1" xmlns="http://www.w3.org/2000/svg" xmlns:xlink="http://www.w3.org/1999/xlink" x="0px" y="0px"
	 viewBox="0 0 2047.8 2047.8" style="enable-background:new 0 0 2047.8 2047.8;" xml:space="preserve">
<style type="text/css">
	.st0{fill:#6096D2;}
	.st1{fill:#5B93D1;}
	.st2{fill:#AAC7E7;}
	.st3{fill:#B4CEEA;}
	.st4{fill:#AFCAE8;}
	.st5{fill:#5C93D1;}
	.st6{fill:#FFFFFF;}
</style>
<g>
	<path class="st0" d="M0,1858.8c0.9,2,1.8,4,0,6C0,1862.8,0,1860.8,0,1858.8z"/>
	<path class="st1" d="M183,2047.8c2-1.8,4-1,6,0C187,2047.8,185,2047.8,183,2047.8z"/>
	<path class="st2" d="M180.9,0.9C181,0.6,181,0.3,181,0c1.7,0,3.3,0,5,0C184.4,1,182.7,1.2,180.9,0.9z"/>
	<path class="st2" d="M1866.8,0c0,0.3,0,0.6,0.1,0.9c-1.8,0.3-3.5,0.1-5.1-0.9C1863.5,0,1865.2,0,1866.8,0z"/>
	<path class="st3" d="M0,181c0.3-0.1,0.6-0.1,0.9-0.1c0.6,1.8-0.4,3.4-0.9,5.1C0,184.3,0,182.6,0,181z"/>
	<path class="st4" d="M2047.8,1866.8c-0.3,0-0.6,0.1-0.9,0.1c-0.4-1.8,0.1-3.5,0.9-5.1C2047.8,1863.5,2047.8,1865.2,2047.8,1866.8z"
		/>
	<path class="st5" d="M1858.8,2047.8c1.7-0.9,3.3-1.6,5,0C1862.2,2047.8,1860.5,2047.8,1858.8,2047.8z"/>
	<path class="st6" d="M2047.8,182c-0.5-0.5-0.5-1.2-0.5-1.9c-0.1-17.8-3.4-34.9-9.7-51.5c-10.5-27.6-26.3-51.6-46.9-72.4
		C1979,44.6,1966,34.3,1951.7,26C1925.6,10.6,1898,0,1867,0.5c-1.7-0.2-3.5,0.5-5.2-0.5C1303.2,0,744.6,0,186,0
		c-1.7,1-3.5,0.3-5.2,0.5c-8.9,0.1-17.8,0.3-26.5,2.2C116.1,11,83.7,29.9,56.1,57.3C44.7,68.7,34.7,81.4,26.4,95.4
		c-15.7,26.4-26.2,54.2-25.9,85.4C0.3,182.5,1,184.3,0,186c0,557.6,0,1115.2,0,1672.8c0.8,2,0.8,4,0,6c0,0.7,0,1.3,0,2
		c0.9,1,0.4,2.2,0.5,3.4c0.6,7.9,0.5,15.8,2.2,23.5c8.4,38,27.1,70.3,54.4,97.7c18.1,18.2,39.2,32.5,62.9,42.6
		c13.5,5.7,27.3,10.7,42.1,12.1c6.3,0.6,12.7,0.6,19,1.7c0.7,0,1.3,0,2,0c2-0.8,4-0.8,6,0c556.6,0,1113.2,0,1669.8,0
		c1.7-0.8,3.3-0.8,5,0c0.7,0,1.3,0,2,0c0.8-0.8,1.9-0.5,2.9-0.5c18.3-0.1,35.9-3.9,52.9-10.6c26.3-10.3,49.3-25.6,69.2-45.4
		c18.1-18,32.4-38.7,42.7-62.2c8.7-19.9,14-40.4,13.8-62.2c0.2-1.7-0.5-3.5,0.5-5.2C2047.8,1301.9,2047.8,741.9,2047.8,182z
		 M1188,1130.8c0,4.4-1.1,5.5-5.5,5.5c-81.7-0.1-163.3-0.1-245-0.1c-7.6,0-6.6-0.8-6.6,6.7c0,119.7,0,239.3,0,359
		c0,120,0,240,0.1,360c0,5.2-1.5,6.1-6.3,6.1c-63.5-0.2-127-0.1-190.5-0.1c-7.5,0-6.7,1.2-6.7-6.6c0-239,0-477.9,0-716.9
		c0-1.7-0.1-3.3,0-5c0.1-2.4-0.9-3.4-3.2-3.2c-1.3,0.1-2.7,0-4,0c-80.8,0-161.6,0-242.5,0.1c-4.6,0-6.1-0.9-6.1-5.9
		c0.2-51,0.2-102,0-153c0-4.8,1.5-5.6,5.8-5.6c234.8,0.1,469.6,0.1,704.4,0c4.9,0,6,1.2,5.9,6
		C1187.8,1028.8,1187.8,1079.8,1188,1130.8z M1871.3,1686.4c-16,62.6-53.6,108.8-108.8,141.3c-37.6,22.2-78.7,34.6-121.5,42.1
		c-53.1,9.3-106.6,11.8-160.3,8.9c-58.2-3.2-115.6-11.4-170.9-30.9c-13.2-4.6-26-10.1-38.6-16.2c-2.3-1.1-3.5-2.3-3.5-5.2
		c0.1-64.7,0.1-129.3,0.1-194c0-0.5,0.2-1,0.2-1.5c1.9-0.4,2.7,1.2,3.7,2c52.8,43.2,112.8,70.9,180,82.4
		c46.1,7.9,92.2,8.7,137.8-3.5c17.7-4.7,34.2-11.9,48.7-23.4c31.3-24.8,38.2-68.5,16-101.8c-12.9-19.4-30.7-33.6-50-46
		c-30.4-19.5-63.5-33.5-96.6-47.7c-31.6-13.6-63.8-26-93.9-43c-36.7-20.7-70.4-45.2-97.4-77.9c-31.3-37.8-47.7-81.5-51.5-130.2
		c-2.8-35.5-0.3-70.6,10.6-104.7c16.7-52.4,49.5-92.7,94.8-123c41.4-27.6,87.5-43.1,136-52.3c55.9-10.5,112.2-11.5,168.8-8.2
		c50.1,2.9,99.3,10.4,147,26.2c4.6,1.5,9,3.5,13.7,4.7c3.9,1,4.7,3.1,4.7,6.8c-0.1,49.3-0.1,98.7-0.1,148c0,11,0,21.9,0,34
		c-16.8-11.3-33.3-20.6-50.7-28.1c-54.1-23.5-110.6-35-169.5-34.2c-31,0.4-61.4,5.1-89.9,18.1c-14.4,6.6-27.3,15.4-37.4,27.8
		c-22.7,27.9-21.5,65.9,2.8,94.4c16.4,19.2,37.2,32.7,59,44.7c33.6,18.6,69.1,32.8,104.2,48c39.8,17.3,78.5,36.5,113.8,61.9
		c33,23.7,61.1,51.9,80.4,88.2c14.9,27.9,22.8,57.8,25.4,89.1C1881.5,1617.9,1880,1652.5,1871.3,1686.4z"/>
</g>
</svg>
